<svg width="78" height="338" viewBox="0 0 78 338" fill="none" xmlns="http://www.w3.org/2000/svg">
<path d="M76 55.5H77V54.5H76V55.5ZM45.5 55.5H44.5V56.5H45.5V55.5ZM45.5 15.9V14.9H44.5V15.9H45.5ZM76 15.9V16.9H77V15.9H76ZM76 1.8H77V0.800001L76 0.800001V1.8ZM2 1.8V0.800001L1 0.800001V1.8H2ZM2 15.9H1V16.9H2V15.9ZM33.9 15.9H34.9V14.9H33.9V15.9ZM33.9 55.5V56.5H34.9V55.5H33.9ZM2 55.5V54.5H1V55.5H2ZM2 69.6H1V70.6H2V69.6ZM76 69.6V70.6H77V69.6H76ZM76 54.5L45.5 54.5V56.5L76 56.5V54.5ZM46.5 55.5L46.5 15.9H44.5L44.5 55.5H46.5ZM45.5 16.9H76V14.9H45.5V16.9ZM77 15.9V1.8H75V15.9H77ZM76 0.800001L2 0.800001V2.8L76 2.8V0.800001ZM1 1.8V15.9H3V1.8H1ZM2 16.9L33.9 16.9V14.9L2 14.9V16.9ZM32.9 15.9V55.5H34.9V15.9H32.9ZM33.9 54.5H2V56.5H33.9V54.5ZM1 55.5L1 69.6H3L3 55.5H1ZM2 70.6L76 70.6V68.6L2 68.6V70.6ZM77 69.6V55.5H75V69.6H77ZM13.7 101.252V100.252H12.7V101.252H13.7ZM33.7 101.252H34.7V100.252H33.7V101.252ZM33.7 134.252H32.7V135.252H33.7V134.252ZM45.3 134.252V135.252H46.3V134.252H45.3ZM45.3 101.252V100.252H44.3V101.252H45.3ZM64.3 101.252H65.3V100.252H64.3V101.252ZM64.3 137.452H63.3V138.452H64.3V137.452ZM76 137.452V138.452H77V137.452H76ZM76 87.1516H77L77 86.1516H76L76 87.1516ZM2 87.1516V86.1516H1V87.1516H2ZM2 138.252H1V139.252H2V138.252ZM13.7 138.252V139.252H14.7V138.252H13.7ZM13.7 102.252L33.7 102.252V100.252L13.7 100.252V102.252ZM32.7 101.252V134.252H34.7V101.252H32.7ZM33.7 135.252H45.3V133.252H33.7V135.252ZM46.3 134.252L46.3 101.252H44.3L44.3 134.252H46.3ZM45.3 102.252H64.3V100.252H45.3V102.252ZM63.3 101.252L63.3 137.452H65.3L65.3 101.252H63.3ZM64.3 138.452H76V136.452H64.3V138.452ZM77 137.452V87.1516H75V137.452H77ZM76 86.1516L2 86.1516V88.1516L76 88.1516L76 86.1516ZM1 87.1516V138.252H3V87.1516H1ZM2 139.252H13.7V137.252H2V139.252ZM14.7 138.252V101.252H12.7V138.252H14.7ZM13.7 166.291V165.291H12.7V166.291H13.7ZM76 166.291V167.291H77V166.291H76ZM76 152.191H77V151.191H76V152.191ZM2 152.191V151.191H1V152.191H2ZM2 198.991H1V199.991H2V198.991ZM13.7 198.991V199.991H14.7V198.991H13.7ZM13.7 167.291H76V165.291H13.7V167.291ZM77 166.291V152.191H75V166.291H77ZM76 151.191H2V153.191H76V151.191ZM1 152.191V198.991H3V152.191H1ZM2 199.991H13.7V197.991H2V199.991ZM14.7 198.991V166.291H12.7V198.991H14.7ZM13.7 223.42V222.42H12.7V223.42H13.7ZM76 223.42V224.42H77V223.42H76ZM76 209.32H77V208.32H76V209.32ZM2 209.32V208.32H1V209.32H2ZM2 256.12H1V257.12H2V256.12ZM13.7 256.12V257.12H14.7V256.12H13.7ZM13.7 224.42H76V222.42H13.7V224.42ZM77 223.42V209.32H75V223.42H77ZM76 208.32H2V210.32H76V208.32ZM1 209.32L1 256.12H3L3 209.32H1ZM2 257.12H13.7V255.12H2V257.12ZM14.7 256.12V223.42H12.7V256.12H14.7ZM-7.07805e-08 297.626C-7.07805e-08 309.448 3.8764 319.412 10.7351 326.425C17.5957 333.44 27.3649 337.426 39 337.426V335.426C27.8351 335.426 18.6043 331.611 12.1649 325.027C5.7236 318.44 2 309.004 2 297.626H-7.07805e-08ZM39 337.426C50.6351 337.426 60.4043 333.44 67.265 326.425C74.1236 319.412 78 309.448 78 297.626H76C76 309.004 72.2764 318.44 65.8351 325.027C59.3957 331.611 50.1649 335.426 39 335.426V337.426ZM78 297.626C78 285.755 74.1243 275.766 67.2656 268.74C60.4047 261.711 50.6351 257.726 39 257.726V259.726C50.1649 259.726 59.3953 263.54 65.8344 270.137C72.2757 276.735 76 286.196 76 297.626H78ZM39 257.726C27.3649 257.726 17.5953 261.711 10.7344 268.74C3.8757 275.766 -7.07805e-08 285.755 -7.07805e-08 297.626H2C2 286.196 5.7243 276.735 12.1656 270.137C18.6047 263.54 27.8351 259.726 39 259.726V257.726ZM13.7 297.626C13.7 290.629 16.227 284.828 20.6047 280.772C24.9889 276.709 31.3066 274.326 39 274.326V272.326C30.8934 272.326 24.0611 274.842 19.2453 279.305C14.423 283.773 11.7 290.123 11.7 297.626H13.7ZM39 274.326C46.6934 274.326 53.0111 276.709 57.3953 280.772C61.773 284.828 64.3 290.629 64.3 297.626H66.3C66.3 290.123 63.577 283.773 58.7547 279.305C53.9389 274.842 47.1066 272.326 39 272.326V274.326ZM64.3 297.626C64.3 304.622 61.7735 310.397 57.3975 314.428C53.0141 318.466 46.6962 320.826 39 320.826V322.826C47.1038 322.826 53.9359 320.336 58.7525 315.899C63.5766 311.455 66.3 305.129 66.3 297.626H64.3ZM39 320.826C31.3038 320.826 24.9859 318.466 20.6025 314.428C16.2266 310.397 13.7 304.622 13.7 297.626H11.7C11.7 305.129 14.4235 311.455 19.2475 315.899C24.0641 320.336 30.8962 322.826 39 322.826V320.826Z" fill="black"/>
</svg>
